<svg xmlns="http://www.w3.org/2000/svg" viewBox="0 0 128 128" role="img" aria-label="SV lifecycle monogram">
  <rect width="128" height="128" rx="26" fill="#0D1B2A"/>

  <!-- Lifecycle ring: four flat segments with equal gaps -->
  <path d="M18 59 A46 46 0 0 1 59 18" fill="none" stroke="#FFFFFF" stroke-width="6" stroke-linecap="butt"/>
  <path d="M69 18 A46 46 0 0 1 110 59" fill="none" stroke="#2563EB" stroke-width="6" stroke-linecap="butt"/>
  <path d="M110 69 A46 46 0 0 1 69 110" fill="none" stroke="#FFFFFF" stroke-width="6" stroke-linecap="butt"/>
  <path d="M59 110 A46 46 0 0 1 18 69" fill="none" stroke="#2563EB" stroke-width="6" stroke-linecap="butt"/>

  <!-- Simplified S: thinner, cleaner and immediately readable -->
  <path d="M83 40H52C44 40 39 45 39 52C39 59 44 64 52 64H68C76 64 81 69 81 76C81 83 76 88 68 88H43"
        fill="none" stroke="#FFFFFF" stroke-width="10"
        stroke-linecap="square" stroke-linejoin="round"/>

  <!-- Angular V: retained almost unchanged -->
  <path d="M61 68H74L83 87L96 65H104L89 99H79Z" fill="#2563EB"/>
</svg>